<?xml version="1.0" standalone="no"?>
<!DOCTYPE svg PUBLIC "-//W3C//DTD SVG 20010904//EN"
 "http://www.w3.org/TR/2001/REC-SVG-20010904/DTD/svg10.dtd">
<svg version="1.0" xmlns="http://www.w3.org/2000/svg"
 width="850.000000pt" height="478.000000pt" viewBox="0 0 850.000000 478.000000"
 preserveAspectRatio="xMidYMid meet">

<g transform="translate(0.000000,478.000000) scale(0.100000,-0.100000)"
fill="#000000" stroke="none">
<path d="M7784 4115 c-125 -73 -140 -92 -132 -174 6 -60 30 -94 86 -122 54
-27 88 -22 167 23 33 19 81 47 107 61 l47 27 -75 125 c-41 69 -78 125 -82 125
-4 0 -57 -30 -118 -65z"/>
<path d="M526 4062 c-36 -60 -68 -116 -71 -125 -10 -23 196 -137 248 -137 78
0 147 68 147 145 0 75 -23 98 -182 184 l-76 42 -66 -109z"/>
<path d="M3058 3565 c-2 -91 -1 -170 0 -175 2 -6 57 -10 133 -10 l129 0 2
-287 3 -288 548 -3 547 -2 0 -677 0 -677 30 48 c17 26 34 46 38 44 4 -2 51
-30 105 -62 100 -60 101 -62 82 -108 -6 -15 4 -13 56 11 l64 29 3 696 2 696
190 0 190 0 0 290 0 290 135 0 135 0 0 175 0 175 -1195 0 -1194 0 -3 -165z"/>
<path d="M6924 3623 c-54 -30 -111 -67 -126 -80 -64 -60 -35 -183 54 -229 53
-27 94 -18 209 48 60 34 109 64 109 67 0 3 -33 61 -73 128 l-73 123 -100 -57z"/>
<path d="M1402 3548 c-40 -67 -69 -125 -65 -129 24 -23 210 -121 236 -125 45
-7 116 32 139 76 25 47 24 120 -2 153 -11 14 -50 42 -88 62 -37 21 -85 48
-108 61 l-40 24 -72 -122z"/>
<path d="M7536 3362 c-117 -67 -141 -95 -141 -161 0 -86 66 -153 150 -153 34
0 62 11 127 49 46 26 95 54 109 62 l26 13 -75 124 c-41 68 -80 124 -86 123 -6
0 -56 -26 -110 -57z"/>
<path d="M769 3290 c-39 -66 -70 -122 -68 -124 2 -2 55 -31 117 -66 101 -56
116 -62 154 -57 76 10 130 72 130 151 0 25 -8 56 -17 70 -15 22 -174 121 -228
141 -11 5 -34 -24 -88 -115z"/>
<path d="M6046 3106 c-117 -67 -137 -90 -138 -155 -1 -89 61 -155 146 -155 44
0 65 8 158 62 l107 63 -76 125 c-41 68 -78 124 -82 124 -3 0 -55 -29 -115 -64z"/>
<path d="M2261 3044 c-39 -64 -71 -120 -71 -125 0 -4 48 -35 108 -69 82 -46
116 -60 148 -60 50 0 99 31 126 80 24 43 20 120 -8 151 -14 15 -178 115 -225
137 -4 2 -39 -50 -78 -114z"/>
<path d="M8149 3050 c-58 -33 -114 -69 -124 -80 -10 -11 -20 -41 -23 -68 -8
-90 46 -160 133 -169 37 -5 54 1 146 52 57 31 109 62 116 67 8 7 -9 43 -63
134 -42 68 -76 124 -77 124 -1 0 -50 -27 -108 -60z"/>
<path d="M232 3087 c-5 -6 -38 -62 -74 -123 l-65 -111 106 -61 c130 -73 149
-78 205 -54 53 24 87 70 93 125 6 65 -20 103 -102 149 -38 22 -89 50 -111 64
-32 18 -44 21 -52 11z"/>
<path d="M6635 2777 c-147 -85 -158 -97 -157 -175 2 -87 81 -161 161 -149 38
5 241 115 241 130 0 13 -141 247 -148 246 -4 0 -48 -24 -97 -52z"/>
<path d="M1691 2701 c-39 -66 -71 -122 -71 -125 0 -3 48 -32 108 -66 82 -46
116 -60 148 -60 77 0 144 70 144 150 0 69 -24 93 -182 179 l-76 41 -71 -119z"/>
<path d="M4850 2650 l0 -50 105 0 105 0 0 50 0 50 -105 0 -105 0 0 -50z"/>
<path d="M3327 2673 c-4 -3 -7 -75 -7 -160 l0 -153 490 0 490 0 0 160 0 160
-483 0 c-266 0 -487 -3 -490 -7z"/>
<path d="M1054 2482 c-38 -64 -70 -120 -72 -126 -4 -17 219 -136 254 -136 73
1 144 76 144 153 0 67 -20 89 -143 159 l-114 65 -69 -115z"/>
<path d="M7260 2544 c-114 -66 -129 -80 -140 -128 -22 -99 56 -191 161 -188
28 1 228 109 235 128 6 14 -135 244 -149 243 -7 0 -55 -25 -107 -55z"/>
<path d="M4850 2550 l0 -30 105 0 105 0 0 30 0 30 -105 0 -105 0 0 -30z"/>
<path d="M4850 2480 l0 -30 105 0 105 0 0 30 0 30 -105 0 -105 0 0 -30z"/>
<path d="M4953 2433 l-103 -4 0 -34 0 -35 105 0 105 0 0 40 c0 22 -1 39 -2 38
-2 -1 -49 -4 -105 -5z"/>
<path d="M4850 2330 c0 -19 7 -20 105 -20 98 0 105 1 105 20 0 19 -7 20 -105
20 -98 0 -105 -1 -105 -20z"/>
<path d="M7885 2287 c-67 -38 -114 -72 -122 -87 -20 -39 -16 -120 7 -158 25
-41 99 -77 142 -68 34 7 238 117 238 129 0 12 -141 247 -149 247 -3 0 -55 -28
-116 -63z"/>
<path d="M426 2231 c-36 -59 -68 -115 -71 -123 -9 -23 201 -138 252 -138 77 0
143 68 143 148 0 67 -21 91 -141 160 -59 34 -111 62 -113 62 -3 0 -34 -49 -70
-109z"/>
<path d="M4845 2273 c2 -10 4 -21 4 -25 1 -5 50 -8 110 -8 99 0 109 2 106 18
-2 9 -4 20 -4 25 -1 4 -50 7 -110 7 -99 0 -109 -2 -106 -17z"/>
<path d="M5600 2231 c-47 -27 -102 -65 -124 -85 -37 -35 -38 -38 -34 -92 8
-89 64 -147 145 -148 41 -1 62 7 136 52 49 28 92 52 97 52 4 0 12 6 18 13 8 9
-9 44 -62 131 -39 66 -76 121 -81 122 -6 1 -48 -19 -95 -45z"/>
<path d="M2723 2148 c-40 -67 -71 -123 -70 -124 1 -1 51 -29 111 -63 117 -66
163 -76 215 -45 68 40 98 146 59 206 -15 22 -179 124 -229 143 -10 3 -37 -35
-86 -117z"/>
<path d="M4850 2210 c0 -19 7 -20 104 -20 95 0 104 2 109 20 5 19 0 20 -104
20 -102 0 -109 -1 -109 -20z"/>
<path d="M4850 2065 l0 -115 105 0 105 0 0 115 0 115 -105 0 -105 0 0 -115z
m158 58 c-26 -2 -71 -2 -100 0 -29 2 -8 3 47 3 55 0 79 -1 53 -3z"/>
<path d="M3324 2146 c-3 -7 -4 -33 -2 -57 l3 -44 310 0 310 0 0 55 0 55 -308
3 c-256 2 -308 0 -313 -12z"/>
<path d="M6421 2047 c-52 -28 -109 -66 -128 -83 -29 -28 -33 -37 -33 -85 0
-65 31 -118 83 -143 60 -28 93 -21 214 47 l113 63 -76 127 c-41 70 -76 127
-77 127 -1 0 -44 -24 -96 -53z"/>
<path d="M1921 1991 c-32 -55 -67 -110 -75 -124 l-16 -24 107 -60 c134 -74
151 -79 207 -55 55 25 88 71 93 131 6 62 -19 98 -93 139 -32 17 -82 45 -111
62 l-52 30 -60 -99z"/>
<path d="M4850 1915 l0 -25 105 0 105 0 0 25 0 25 -105 0 -105 0 0 -25z"/>
<path d="M3320 1620 l0 -290 493 0 492 0 0 290 0 290 -492 0 -493 0 0 -290z"/>
<path d="M4849 1863 c0 -10 -1 -37 -2 -61 l-2 -42 110 0 110 0 -3 60 -4 60
-104 0 c-92 0 -104 -2 -105 -17z"/>
<path d="M6980 1700 c-132 -74 -150 -94 -150 -163 0 -62 25 -108 72 -137 58
-35 100 -27 225 43 l113 63 -71 120 c-39 65 -74 122 -78 126 -3 4 -53 -19
-111 -52z"/>
<path d="M1337 1626 l-74 -124 111 -63 c91 -52 119 -64 154 -63 73 2 132 61
139 141 6 64 -18 100 -93 141 -32 17 -82 45 -111 62 l-52 30 -74 -124z"/>
<path d="M7690 1515 c-7 -8 -16 -15 -20 -15 -4 0 -44 -21 -89 -46 -91 -52
-111 -78 -111 -147 0 -79 66 -149 142 -151 35 -1 63 10 155 62 l111 63 -72
122 c-40 67 -80 123 -88 125 -8 2 -21 -4 -28 -13z"/>
<path d="M744 1479 c-51 -81 -114 -191 -114 -199 0 -4 49 -35 109 -69 74 -42
119 -61 142 -61 115 0 194 151 122 229 -24 25 -210 141 -227 141 -3 0 -17 -19
-32 -41z"/>
<path d="M4606 1264 c-49 -84 -72 -98 -136 -91 l-50 6 0 -75 0 -74 35 -17 c34
-16 38 -16 83 1 81 31 79 31 86 -8 10 -51 -15 -104 -55 -118 -20 -7 -27 -13
-19 -18 11 -7 46 -238 37 -246 -2 -2 -40 -9 -85 -16 l-82 -11 0 -39 c0 -49
-24 -96 -55 -108 -23 -9 -151 -40 -221 -55 l-31 -6 -22 108 c-13 59 -25 117
-28 129 -4 19 3 23 86 39 89 18 91 19 91 47 0 44 25 95 57 114 15 10 29 19 31
20 2 1 -1 11 -7 22 -10 19 -19 20 -158 15 -114 -4 -157 -9 -188 -23 -22 -10
-80 -30 -130 -45 -49 -15 -95 -30 -101 -32 -7 -3 -19 17 -29 46 l-17 51 -189
0 -189 0 1 -232 c0 -250 6 -288 49 -320 24 -17 66 -18 885 -19 l859 -1 33 36
33 36 0 250 0 250 -129 0 c-70 0 -156 3 -190 6 l-61 7 0 128 c0 117 -2 129
-19 139 -16 8 -22 6 -30 -7 -9 -18 -26 13 -78 140 -8 20 -18 37 -22 37 -4 0
-24 -30 -45 -66z m-929 -600 c54 -31 102 -60 107 -64 5 -5 -1 -22 -13 -38 -11
-17 -21 -33 -21 -37 0 -4 -21 -43 -47 -86 -42 -69 -53 -81 -86 -90 -70 -19
-154 27 -177 97 -13 38 -2 69 56 168 60 100 64 106 74 106 5 0 53 -25 107 -56z
m1342 -77 c42 -21 62 -59 63 -115 0 -59 -29 -116 -65 -126 -12 -3 -77 -6 -144
-6 l-123 0 0 94 c0 51 -3 107 -6 124 l-6 31 73 4 c158 7 185 6 208 -6z"/>
<path d="M8245 1220 c-126 -74 -145 -95 -145 -161 0 -28 6 -62 14 -77 21 -40
73 -74 121 -79 37 -5 54 2 153 58 62 34 112 67 112 73 0 13 -141 246 -149 245
-3 0 -51 -27 -106 -59z"/>
<path d="M70 1150 c-44 -73 -70 -124 -64 -130 5 -5 53 -34 107 -64 77 -44 108
-56 141 -56 101 0 173 108 136 204 -10 26 -61 63 -181 130 l-67 36 -72 -120z"/>
<path d="M3322 1058 l3 -53 313 -3 312 -2 0 55 0 55 -316 0 -315 0 3 -52z"/>
<path d="M4850 1030 l0 -60 165 0 165 0 0 60 0 60 -165 0 -165 0 0 -60z"/>
<path d="M6793 988 c-29 -16 -53 -32 -53 -36 0 -8 250 -145 255 -140 9 8 -122
208 -135 207 -8 -1 -39 -15 -67 -31z"/>
<path d="M1582 943 c-21 -38 -49 -85 -62 -106 l-22 -38 103 56 c57 31 116 61
132 67 15 5 27 13 27 16 0 8 -114 72 -128 72 -6 0 -28 -30 -50 -67z"/>
<path d="M7388 661 c-27 -14 -48 -28 -48 -31 0 -7 192 -111 196 -107 3 3 -85
149 -95 158 -3 3 -27 -6 -53 -20z"/>
<path d="M1021 613 c-19 -32 -41 -69 -49 -81 -13 -20 -1 -16 79 27 51 28 95
54 97 59 2 8 -68 52 -85 52 -4 0 -24 -26 -42 -57z"/>
<path d="M7980 409 c-47 -28 -91 -54 -99 -58 -9 -6 20 -26 95 -67 215 -116
199 -110 228 -91 l25 17 -72 122 c-40 67 -76 123 -82 124 -5 1 -48 -20 -95
-47z"/>
<path d="M406 428 c-8 -13 -42 -68 -75 -123 l-60 -100 30 -15 c29 -13 33 -12
112 29 141 75 192 103 200 111 5 4 -18 22 -50 40 -32 18 -77 44 -100 57 l-42
24 -15 -23z"/>
</g>
</svg>
